<?xml version="1.0" encoding="utf-8"?>
<!-- Generator: Adobe Illustrator 19.0.0, SVG Export Plug-In . SVG Version: 6.00 Build 0)  -->
<svg version="1.1"
	 id="Layer_1" xmlns:cc="http://creativecommons.org/ns#" xmlns:dc="http://purl.org/dc/elements/1.1/" xmlns:inkscape="http://www.inkscape.org/namespaces/inkscape" xmlns:svg="http://www.w3.org/2000/svg" xmlns:rdf="http://www.w3.org/1999/02/22-rdf-syntax-ns#" xmlns:sodipodi="http://sodipodi.sourceforge.net/DTD/sodipodi-0.dtd"
	 xmlns="http://www.w3.org/2000/svg" xmlns:xlink="http://www.w3.org/1999/xlink" x="0px" y="0px" viewBox="-255 334 100 125"
	 style="enable-background:new -255 334 100 125;" xml:space="preserve">
<style type="text/css">
	.st0{fill:#424242;}
</style>
<g transform="translate(0,-952.36218)">
	<path class="st0" d="M-212,1308.9c-2.7,0-5,2.1-5,5v3h-16c-2.2,0-4,1.8-4,4v10c0,2.2,1.8,4,4,4h2v50c0,2.2,1.8,4,4,4h44
		c2.2,0,4-1.8,4-4v-50h2c2.2,0,4-1.8,4-4v-10c0-2.2-1.8-4-4-4h-16v-3c0-2.9-2.3-5-5-5H-212z M-212,1312.9h14c0.3,0,1,0.5,1,1v3h-16
		v-3C-213,1313.4-212.3,1312.9-212,1312.9z M-233,1320.9h56v10h-56V1320.9z M-227,1334.9h44v50h-44V1334.9z M-217,1342.9
		c-1.1,0-2,0.9-2,2v30c0,1.1,0.9,2,2,2s2-0.9,2-2v-30C-215,1343.8-215.9,1342.9-217,1342.9z M-205,1342.9c-1.1,0-2,0.9-2,2v30
		c0,1.1,0.9,2,2,2s2-0.9,2-2v-30C-203,1343.8-203.9,1342.9-205,1342.9z M-193,1342.9c-1.1,0-2,0.9-2,2v30c0,1.1,0.9,2,2,2s2-0.9,2-2
		v-30C-191,1343.8-191.9,1342.9-193,1342.9z"/>
</g>
</svg>
