<?xml version="1.0" encoding="utf-8"?>
<!-- Generator: Adobe Illustrator 19.0.0, SVG Export Plug-In . SVG Version: 6.00 Build 0)  -->
<svg version="1.1"
	 id="Layer_1" xmlns:dc="http://purl.org/dc/elements/1.1/" xmlns:cc="http://creativecommons.org/ns#" xmlns:rdf="http://www.w3.org/1999/02/22-rdf-syntax-ns#" xmlns:svg="http://www.w3.org/2000/svg" xmlns:sodipodi="http://sodipodi.sourceforge.net/DTD/sodipodi-0.dtd" xmlns:inkscape="http://www.inkscape.org/namespaces/inkscape"
	 xmlns="http://www.w3.org/2000/svg" xmlns:xlink="http://www.w3.org/1999/xlink" x="0px" y="0px" viewBox="-255 334 100 125"
	 style="enable-background:new -255 334 100 125;" xml:space="preserve">
<g transform="translate(0,-952.36218)">
	<path d="M-232,1328.4c-4.4,0-8,3.6-8,8c0,4.4,3.6,8,8,8c4.4,0,8-3.6,8-8C-224,1331.9-227.6,1328.4-232,1328.4z M-205,1328.4
		c-4.4,0-8,3.6-8,8c0,4.4,3.6,8,8,8c4.4,0,8-3.6,8-8C-197,1331.9-200.6,1328.4-205,1328.4z M-178,1328.4c-4.4,0-8,3.6-8,8
		c0,4.4,3.6,8,8,8c4.4,0,8-3.6,8-8C-170,1331.9-173.6,1328.4-178,1328.4z"/>
</g>
</svg>
