<?xml version="1.0" encoding="utf-8"?>
<!-- Generator: Adobe Illustrator 19.0.0, SVG Export Plug-In . SVG Version: 6.00 Build 0)  -->
<svg version="1.1"
	 id="Layer_1" xmlns:cc="http://creativecommons.org/ns#" xmlns:dc="http://purl.org/dc/elements/1.1/" xmlns:inkscape="http://www.inkscape.org/namespaces/inkscape" xmlns:svg="http://www.w3.org/2000/svg" xmlns:rdf="http://www.w3.org/1999/02/22-rdf-syntax-ns#" xmlns:sodipodi="http://sodipodi.sourceforge.net/DTD/sodipodi-0.dtd"
	 xmlns="http://www.w3.org/2000/svg" xmlns:xlink="http://www.w3.org/1999/xlink" x="0px" y="0px" viewBox="67 -69.2 745 931.2"
	 style="enable-background:new 67 -69.2 745 931.2;" xml:space="preserve">
<style type="text/css">
	.st0{fill:#424242;}
</style>
<path class="st0" d="M161.8,93.4c-14.1,0-25.5,11.3-25.5,25.4v555.4c0,14.1,11.4,25.5,25.5,25.5h555.4c14.1,0,25.5-11.4,25.5-25.5
	V398.5c0-14.1-11.4-25.5-25.5-25.5s-25.5,11.4-25.5,25.5v250.1H187.2V144.1h250.1c14.1,0,25.5-11.4,25.5-25.5s-11.4-25.5-25.5-25.5
	H161.8V93.4z M566.4,93.4c-14.1,0-25.5,11.4-25.5,25.5s11.4,25.5,25.5,25.5h89.3L460.5,339.7c-9.9,9.9-9.9,26,0,36
	c5,5,11.5,7.5,18,7.5c6.5,0,13-2.5,18-7.5l195.3-195.3v89.3c0,14.1,11.4,25.5,25.5,25.5c14.1,0,25.5-11.4,25.5-25.5V118.9
	c0-14.1-11.4-25.5-25.5-25.5H566.4L566.4,93.4z"/>
</svg>
