<?xml version="1.0" encoding="utf-8"?>
<!-- Generator: Adobe Illustrator 19.0.0, SVG Export Plug-In . SVG Version: 6.00 Build 0)  -->
<svg version="1.1" id="Layer_1" xmlns="http://www.w3.org/2000/svg" xmlns:xlink="http://www.w3.org/1999/xlink" x="0px" y="0px"
	 viewBox="-255 334 100 125" style="enable-background:new -255 334 100 125;" xml:space="preserve">
<style type="text/css">
	.st0{fill:#7F7F7F;}
</style>
<g>
	<path class="st0" d="M-194.7,422C-194.7,422-194.7,422-194.7,422c-2.6,0-5.1-1-6.9-2.9l-38.5-38.5c-1.8-1.7-2.8-4.1-2.8-6.6l0-18.3
		c0-5.4,4.4-9.8,9.8-9.8l18.3,0c2.6,0.1,4.9,1.1,6.7,2.8l38.5,38.5c1.8,1.8,2.9,4.3,2.9,6.9c0,2.6-1,5.1-2.9,6.9l-18,18
		C-189.6,421-192.1,422-194.7,422z M-233.3,351c-2.6,0-4.8,2.1-4.8,4.8l0,18.2c0,1.1,0.5,2.3,1.4,3.1l38.5,38.5
		c0.9,0.9,2.1,1.4,3.4,1.4c0,0,0,0,0,0c1.3,0,2.5-0.5,3.4-1.4l18-18c0.9-0.9,1.4-2.1,1.4-3.4c0-1.3-0.5-2.5-1.4-3.4l-38.5-38.5
		c-0.8-0.8-2-1.3-3.2-1.4L-233.3,351z M-225.1,373.1c-5.1,0-9.2-4.1-9.2-9.2c0-2.4,1-4.8,2.7-6.5c1.7-1.7,4-2.7,6.5-2.7
		c5.1,0,9.2,4.1,9.2,9.2C-215.9,369-220,373.1-225.1,373.1z M-225.1,359.7c-1.1,0-2.2,0.4-2.9,1.2c-0.8,0.8-1.2,1.8-1.2,2.9
		c0,2.3,1.9,4.2,4.2,4.2c2.3,0,4.2-1.9,4.2-4.2C-220.9,361.6-222.8,359.7-225.1,359.7z"/>
</g>
</svg>
